<svg width="242" height="61" viewBox="0 0 242 61" fill="none" xmlns="http://www.w3.org/2000/svg">
<path d="M48.9135 55.7173L48.8311 29.2359L68.1974 29.1748L68.2127 33.6545L54.12 33.7003L54.1383 39.5695L67.2508 39.5267L67.2661 43.9882L54.1536 44.0309L54.175 51.2376L68.7654 51.1918L68.7807 55.6532L48.9135 55.7173Z" fill="#00303C"/>
<path d="M68.6191 55.6566L75.3647 45.8238L68.8421 36.6078L74.9097 36.5895L78.2535 41.8174L81.7408 36.5681L87.5794 36.5498L81.24 45.5917L88.2237 55.5956L82.1194 55.6139L78.281 49.7264L74.4425 55.6383L68.6191 55.6566Z" fill="#00303C"/>
<path d="M98.984 36.5127L98.9962 40.5314L95.6005 40.5436L95.6249 48.2205C95.631 49.7748 95.6646 50.6818 95.7318 50.9383C95.7959 51.1948 95.9456 51.4055 96.1746 51.5735C96.4067 51.7414 96.6846 51.8239 97.0144 51.8208C97.4755 51.8208 98.1412 51.6559 99.0115 51.3292L99.4481 55.2379C98.2938 55.7448 96.9869 55.9982 95.5242 56.0043C94.6264 56.0074 93.8202 55.8578 93.0996 55.5554C92.3789 55.2531 91.8506 54.8592 91.5116 54.3767C91.1727 53.8942 90.9375 53.2408 90.8062 52.4163C90.6994 51.83 90.6413 50.6482 90.6352 48.8648L90.6078 40.5589L88.3267 40.565L88.3145 36.5463L90.5955 36.5402L90.5833 32.7567L95.5639 29.8008L95.5852 36.528L98.984 36.5127Z" fill="#00303C"/>
<path d="M107.254 55.5346L102.283 55.5498L102.222 36.501L106.839 36.4858L106.848 39.1944C107.633 37.9118 108.341 37.066 108.97 36.6598C109.599 36.2506 110.317 36.046 111.117 36.043C112.25 36.0399 113.34 36.3514 114.394 36.9835L112.87 41.3839C112.03 40.8373 111.251 40.5655 110.531 40.5655C109.834 40.5685 109.245 40.764 108.763 41.1548C108.28 41.5457 107.902 42.2481 107.627 43.2649C107.352 44.2818 107.221 46.4102 107.23 49.6532L107.254 55.5346Z" fill="#00303C"/>
<path d="M118.818 42.2598L114.305 41.4505C114.806 39.6061 115.676 38.2411 116.91 37.3525C118.146 36.4639 119.985 36.015 122.425 36.0089C124.642 36.0028 126.294 36.2624 127.381 36.7906C128.468 37.3189 129.234 37.9938 129.677 38.8091C130.12 39.6244 130.349 41.1299 130.355 43.3163L130.321 49.2008C130.328 50.8742 130.41 52.1078 130.572 52.9049C130.734 53.6988 131.033 54.5508 131.473 55.4577L126.553 55.473C126.422 55.1401 126.26 54.6424 126.071 53.9859C125.988 53.6866 125.927 53.4912 125.894 53.3934C125.048 54.2332 124.141 54.8653 123.176 55.2867C122.211 55.7081 121.179 55.9219 120.082 55.9249C118.149 55.931 116.623 55.4028 115.505 54.3431C114.387 53.2835 113.825 51.9399 113.819 50.3123C113.816 49.2374 114.067 48.2755 114.571 47.4327C115.074 46.5868 115.783 45.9394 116.696 45.4875C117.609 45.0355 118.925 44.6416 120.647 44.2996C122.968 43.8507 124.577 43.4324 125.472 43.0476L125.469 42.5438C125.466 41.5757 125.228 40.8856 124.755 40.4734C124.281 40.0611 123.39 39.8596 122.083 39.8626C121.197 39.8657 120.51 40.0428 120.015 40.397C119.524 40.7543 119.124 41.3742 118.818 42.2598ZM125.484 46.3272C124.849 46.5441 123.842 46.8036 122.461 47.109C121.081 47.4113 120.18 47.7075 119.759 47.9976C119.111 48.4648 118.788 49.0603 118.791 49.7779C118.794 50.4833 119.053 51.091 119.576 51.604C120.095 52.117 120.757 52.3705 121.56 52.3674C122.455 52.3644 123.31 52.062 124.122 51.4635C124.721 51.0085 125.115 50.4497 125.301 49.7932C125.429 49.3626 125.49 48.5442 125.487 47.335L125.484 46.3272Z" fill="#00303C"/>
<path d="M148.735 41.9883L143.837 42.9014C143.669 41.9089 143.29 41.1638 142.707 40.663C142.121 40.1622 141.363 39.9149 140.432 39.9179C139.195 39.921 138.206 40.3577 137.473 41.228C136.74 42.0983 136.374 43.5488 136.38 45.5795C136.386 47.8392 136.764 49.4362 137.519 50.3646C138.27 51.2959 139.278 51.757 140.539 51.754C141.482 51.7509 142.255 51.4761 142.853 50.9295C143.452 50.3829 143.873 49.4454 144.118 48.1171L149.003 48.9446C148.503 51.2196 147.535 52.9357 146.099 54.1022C144.664 55.2657 142.737 55.852 140.319 55.8612C137.571 55.8703 135.378 54.997 133.738 53.2442C132.098 51.4914 131.274 49.0606 131.265 45.952C131.256 42.8067 132.068 40.3577 133.702 38.5988C135.335 36.8429 137.549 35.9604 140.343 35.9512C142.63 35.9451 144.45 36.4368 145.806 37.4323C147.165 38.4247 148.139 39.9424 148.735 41.9883Z" fill="#00303C"/>
<path d="M160.376 36.3174L160.388 40.3361L156.992 40.3483L157.017 48.0252C157.023 49.5795 157.056 50.4865 157.123 50.743C157.188 50.9995 157.337 51.2102 157.566 51.3781C157.798 51.5461 158.076 51.6285 158.406 51.6255C158.867 51.6255 159.533 51.4606 160.403 51.1339L160.84 55.0426C159.685 55.5495 158.378 55.8029 156.916 55.809C156.018 55.8121 155.212 55.6624 154.491 55.3601C153.77 55.0578 153.242 54.6639 152.903 54.1814C152.564 53.6989 152.329 53.0454 152.198 52.221C152.091 51.6347 152.033 50.4529 152.027 48.6695L151.999 40.3636L149.718 40.3697L149.706 36.351L151.987 36.3449L151.975 32.5614L156.955 29.6055L156.977 36.3327L160.376 36.3174Z" fill="#00303C"/>
<path d="M181.751 44.6298L187.361 46.4132C186.512 49.5829 185.089 51.9403 183.098 53.4855C181.104 55.0306 178.572 55.8063 175.5 55.8154C171.698 55.8276 168.572 54.5207 166.116 51.8945C163.661 49.2683 162.424 45.6742 162.412 41.1059C162.397 36.275 163.615 32.519 166.067 29.8409C168.52 27.1598 171.75 25.8131 175.76 25.8009C179.262 25.7887 182.108 26.83 184.301 28.9217C185.608 30.1585 186.588 31.9357 187.248 34.2565L181.531 35.6612C181.189 34.1588 180.478 32.9709 179.403 32.1037C178.325 31.2364 177.021 30.8059 175.485 30.8089C173.363 30.815 171.643 31.5937 170.327 33.1419C169.011 34.6901 168.358 37.1941 168.37 40.6509C168.382 44.3214 169.042 46.9323 170.349 48.4836C171.656 50.0379 173.351 50.8105 175.433 50.8043C176.969 50.7982 178.288 50.3005 179.394 49.3081C180.487 48.3156 181.278 46.7552 181.751 44.6298Z" fill="#00303C"/>
<path d="M193.599 55.2631L188.627 55.2784L188.566 36.2296L193.184 36.2143L193.193 38.9229C193.978 37.6404 194.686 36.7945 195.315 36.3883C195.944 35.9792 196.662 35.7746 197.462 35.7715C198.595 35.7685 199.685 36.0799 200.738 36.712L199.215 41.1124C198.375 40.5658 197.596 40.294 196.875 40.294C196.179 40.297 195.59 40.4925 195.107 40.8834C194.625 41.2742 194.246 41.9766 193.971 42.9934C193.697 44.0103 193.565 46.1387 193.574 49.3787L193.599 55.2631Z" fill="#00303C"/>
<path d="M204.44 41.9912L199.927 41.182C200.428 39.3376 201.298 37.9726 202.532 37.084C203.768 36.1953 205.607 35.7464 208.047 35.7403C210.264 35.7342 211.916 35.9938 213.003 36.5221C214.09 37.0504 214.856 37.7252 215.299 38.5406C215.745 39.3589 215.971 40.8613 215.977 43.0478L215.943 48.9322C215.95 50.6056 216.032 51.8393 216.194 52.6363C216.356 53.4303 216.655 54.2822 217.095 55.1892L212.175 55.2044C212.044 54.8716 211.882 54.3738 211.693 53.7173C211.61 53.418 211.549 53.2226 211.516 53.1249C210.67 53.9647 209.763 54.5968 208.798 55.0182C207.833 55.4396 206.801 55.6533 205.705 55.6564C203.772 55.6625 202.245 55.1342 201.127 54.0746C200.009 53.015 199.448 51.6713 199.441 50.0437C199.438 48.9688 199.689 48.0069 200.193 47.1611C200.696 46.3152 201.405 45.6678 202.318 45.2189C203.231 44.767 204.547 44.3731 206.269 44.0311C208.59 43.5822 210.2 43.1638 211.094 42.7791L211.091 42.2752C211.088 41.3072 210.85 40.6171 210.377 40.2048C209.903 39.7926 209.012 39.591 207.705 39.5941C206.819 39.5971 206.132 39.7742 205.637 40.1285C205.143 40.4857 204.746 41.1056 204.44 41.9912ZM211.106 46.0587C210.471 46.2755 209.464 46.5351 208.083 46.8404C206.703 47.1427 205.802 47.439 205.381 47.7291C204.733 48.1963 204.41 48.7917 204.413 49.5093C204.416 50.2147 204.675 50.8224 205.198 51.3354C205.717 51.8485 206.379 52.1019 207.182 52.0989C208.077 52.0958 208.932 51.7935 209.745 51.195C210.343 50.74 210.737 50.1811 210.923 49.5246C211.051 49.094 211.113 48.2757 211.109 47.0664L211.106 46.0587Z" fill="#00303C"/>
<path d="M217.231 36.1406L219.992 36.1314L219.986 34.6962C219.98 33.093 220.145 31.8991 220.477 31.1082C220.81 30.3173 221.427 29.6729 222.328 29.1752C223.229 28.6774 224.368 28.424 225.748 28.4209C227.162 28.4179 228.548 28.6286 229.907 29.053L229.251 32.5678C228.46 32.3785 227.699 32.2869 226.967 32.2869C226.246 32.2899 225.733 32.4609 225.421 32.8029C225.11 33.145 224.957 33.7984 224.957 34.7695L224.96 36.1162L228.677 36.104L228.689 40.0676L224.972 40.0798L225.021 55.165L220.05 55.1802L220.001 40.0951L217.241 40.1043L217.231 36.1406Z" fill="#00303C"/>
<path d="M241.536 36.0645L241.548 40.0831L238.152 40.0954L238.177 47.7723C238.183 49.3266 238.216 50.2335 238.284 50.4901C238.348 50.7466 238.497 50.9573 238.726 51.1252C238.958 51.2932 239.236 51.3756 239.566 51.3726C240.027 51.3695 240.693 51.2077 241.563 50.8809L242 54.7896C240.846 55.2965 239.539 55.55 238.076 55.5561C237.178 55.5591 236.372 55.4095 235.651 55.1072C234.931 54.8049 234.402 54.411 234.063 53.9285C233.724 53.446 233.489 52.7925 233.358 51.968C233.251 51.3817 233.193 50.1999 233.187 48.4166L233.16 40.1106L230.878 40.1167L230.866 36.0981L233.147 36.092L233.135 32.3085L238.116 29.3525L238.137 36.0798L241.536 36.0645Z" fill="#00303C"/>
<path d="M50.0798 15.5737C50.5042 14.7706 51.5761 14.4164 51.4875 13.3048C51.3348 11.3535 47.5055 9.17017 46.7727 7.60364C44.8794 3.55142 49.5118 0.464158 52.6113 0C51.7776 0.778686 50.5745 1.86274 50.2264 2.617C49.8233 3.4934 49.3591 4.51333 49.3225 5.66761C49.2644 7.44485 49.863 8.03726 50.7577 9.20682C51.402 10.0466 53.6312 11.662 53.4938 13.6041C53.4358 14.453 52.6724 15.531 50.0798 15.5737Z" fill="#FFC600"/>
<path d="M17.7079 48.5559C13.0083 47.1207 7.85978 50.8064 9.63396 56.7703C10.5256 59.7659 15.0909 59.8026 16.0742 58.2696C15.9031 60.1385 14.3336 60.6576 12.9564 60.8622C11.2066 61.1187 9.14843 60.3766 7.97582 59.1216C7.0017 58.0803 6.22912 57.094 5.76496 54.3334C4.41829 46.3237 13.3961 44.5739 13.5488 44.5708C13.5488 44.5708 10.7638 42.6134 6.5467 46.171C6.96811 45.1541 8.71175 41.4256 15.0634 41.5966C15.0634 41.5966 11.1516 39.5811 8.02773 41.8225C8.18957 41.4744 8.35753 41.1171 8.52548 40.7599C9.49044 39.3979 11.8326 37.5657 17.0055 38.1429C17.0055 38.1429 12.1746 36.4328 9.79886 37.7367C10.6264 36.7168 11.7899 34.0387 12.309 32.8844C13.0296 31.2721 14.413 26.4229 13.6587 24.1937C13.448 26.8412 12.7823 28.6246 11.5517 31.1133C10.544 33.1532 9.23393 35.1045 8.1682 37.1138C7.80786 34.6647 5.97872 32.7257 5.97872 32.7257C7.0475 35.532 6.98948 37.6268 6.65358 39.0376C6.52227 39.3338 6.39402 39.63 6.26881 39.9262C5.94207 39.2025 5.19087 38.7811 5.19087 38.7811C5.68251 39.4773 5.60922 40.9614 5.50845 41.8653C3.57242 47.2306 2.99833 52.5715 4.81527 56.8527C-0.000371306 53.1761 -1.15771 47.1787 1.13559 38.7902C3.19682 31.2477 12.1868 21.0087 9.39272 12.7363C12.7518 14.1257 15.2558 16.4374 16.4253 17.613C20.0867 21.4118 21.9036 26.6702 22.5082 31.5683C22.722 33.2936 23.4121 36.8359 21.3234 42.0607C21.3234 42.0607 19.9829 46.3725 17.7079 48.5559Z" fill="url(#paint0_linear_91_925)"/>
<path d="M53.2555 20.7469L47.2153 14.7067C46.058 13.5493 44.5159 12.9111 42.873 12.9111C41.2301 12.9111 39.688 13.5493 38.5307 14.7067C37.2939 15.9434 36.6985 17.5985 36.7504 19.2383L32.5485 23.4402C30.7163 22.8508 28.7895 22.5485 26.8595 22.5485C25.3327 22.5485 23.8364 22.7317 22.392 23.089C22.7035 23.7089 22.9814 24.3563 23.2226 25.0312C23.4547 25.6816 23.6532 26.3503 23.8242 27.0283C24.8258 26.8145 25.8427 26.7015 26.8595 26.7015C29.1528 26.7015 31.4462 27.2451 33.5288 28.3352L41.4408 20.4232C40.6988 19.6475 40.7049 18.4047 41.4683 17.6413C41.8561 17.2535 42.3661 17.0611 42.873 17.0611C43.383 17.0611 43.8929 17.2535 44.2777 17.6413L50.3178 23.6814C51.0904 24.454 51.0904 25.7213 50.3178 26.4939C49.9331 26.8817 49.4231 27.0741 48.9132 27.0741C48.4154 27.0741 47.9207 26.8908 47.5359 26.5244L39.6239 34.4365C42.4607 39.8659 41.5996 46.7275 37.0405 51.2866C34.228 54.099 30.5423 55.5465 26.8565 55.5037C21.5523 55.4427 17.6588 53.5341 16.0037 50.8591C15.8541 50.8194 14.9624 50.4896 13.6341 51.1248C12.9073 51.4729 12.4767 51.9187 12.1836 52.334C14.7792 56.6122 21.7049 59.614 26.8534 59.6537C31.8095 59.6903 36.4694 57.7237 39.972 54.2181C42.8211 51.3691 44.635 47.7596 45.2121 43.7807C45.6244 40.9347 45.3862 38.0886 44.5189 35.4075L48.7055 31.2209C48.7727 31.224 48.8399 31.224 48.9101 31.224C50.5499 31.224 52.092 30.5858 53.2494 29.4284C54.4067 28.2711 55.0449 26.729 55.0449 25.0861C55.0449 23.4432 54.4159 21.9042 53.2555 20.7469Z" fill="#00303C"/>
<path d="M38.5311 38.0942L32.7993 38.085C30.961 37.9049 30.6312 36.7842 29.0891 36.7842C27.5317 36.7842 27.321 37.798 24.9911 38.0698H24.8659C24.2582 42.5434 22.1023 46.6445 19.7266 49.9883C21.8122 51.9701 24.359 52.7335 27.1561 52.7335C33.4711 52.7335 38.9677 47.5484 38.9677 41.2334C38.9708 40.1432 38.8151 39.0928 38.5311 38.0942ZM29.0891 37.3461C30.3472 37.3461 31.3702 38.369 31.3702 39.6271C31.3702 40.8853 30.3472 41.9082 29.0891 41.9082C27.831 41.9082 26.808 40.8853 26.808 39.6271C26.808 38.369 27.8341 37.3461 29.0891 37.3461ZM31.2603 48.9347C30.6801 48.9347 30.2129 48.4645 30.2129 47.8873C30.2129 47.3071 30.6831 46.8399 31.2603 46.8399C31.8405 46.8399 32.3077 47.3102 32.3077 47.8873C32.3077 48.4645 31.8374 48.9347 31.2603 48.9347ZM34.0116 45.0718C33.1352 45.0718 32.4237 44.3603 32.4237 43.4839C32.4237 42.6075 33.1352 41.896 34.0116 41.896C34.888 41.896 35.5995 42.6075 35.5995 43.4839C35.6026 44.3634 34.8911 45.0718 34.0116 45.0718Z" fill="#FFC600"/>
<defs>
<linearGradient id="paint0_linear_91_925" x1="9.97835" y1="21.1348" x2="12.0342" y2="49.4257" gradientUnits="userSpaceOnUse">
<stop stop-color="#00A651"/>
<stop offset="0.138" stop-color="#009F4F"/>
<stop offset="0.3464" stop-color="#00924B"/>
<stop offset="0.5993" stop-color="#007E45"/>
<stop offset="0.8847" stop-color="#00623A"/>
<stop offset="1" stop-color="#005734"/>
</linearGradient>
</defs>
</svg>
