<svg width="35" height="34" viewBox="0 0 35 34" fill="none" xmlns="http://www.w3.org/2000/svg">
<path fill-rule="evenodd" clip-rule="evenodd" d="M0.559937 8.81812V25.062C0.559937 29.9352 4.62091 33.8801 9.37805 33.7641H25.5059C30.3791 33.7641 34.3241 29.8192 34.3241 24.946V8.81812C34.3241 3.94495 30.3791 0 25.5059 0H9.37805C4.50488 0 0.559937 3.94495 0.559937 8.81812ZM21.6749 11.7189C21.6749 11.1387 22.139 10.5586 22.8352 10.5586C23.5314 10.5586 23.9955 11.1387 23.9955 11.7189C23.9955 12.415 23.5314 12.8792 22.8352 12.8792C22.139 12.8792 21.6749 12.415 21.6749 11.7189ZM17.6134 12.0684C14.9448 12.0684 12.7402 14.2729 12.7402 16.9415C12.7402 19.6102 14.9448 21.8147 17.6134 21.8147C20.282 21.8147 22.4866 19.6102 22.4866 16.9415C22.6026 14.2729 20.3981 12.0684 17.6134 12.0684ZM17.6134 20.0743C15.873 20.0743 14.4807 18.682 14.4807 16.9415C14.4807 15.2011 15.873 13.8088 17.6134 13.8088C19.3538 13.8088 20.7462 15.2011 20.7462 16.9415C20.7462 18.682 19.3538 20.0743 17.6134 20.0743ZM13.6697 26.9162H21.5596C24.8084 26.9162 27.4771 24.2475 27.4771 20.9987V13.1088C27.4771 9.86006 24.8084 7.19141 21.5596 7.19141H13.6697C10.421 7.19141 7.75232 9.86006 7.75232 13.1088V20.9987C7.75232 24.2475 10.421 26.9162 13.6697 26.9162ZM9.49274 12.9928C9.49274 10.7883 11.2332 8.93183 13.5537 8.93183H21.4436C23.6481 8.93183 25.5046 10.6723 25.5046 12.9928V20.8827C25.5046 23.0872 23.7642 24.9437 21.4436 24.9437H13.5537C11.3492 24.9437 9.49274 23.2033 9.49274 20.8827V12.9928Z" fill="#FFC600"/>
</svg>
