<svg width="34" height="34" viewBox="0 0 34 34" fill="none" xmlns="http://www.w3.org/2000/svg">
<path fill-rule="evenodd" clip-rule="evenodd" d="M0 8.81812V25.062C0 29.9352 4.06098 33.8801 8.70209 33.7641H14.1554L14.2689 33.7317V22.3911H9.97587V17.5179H14.2689V13.805C14.2689 9.51197 16.8215 7.19141 20.6504 7.19141C22.5069 7.19141 24.4794 7.5395 24.4794 7.5395V11.7165H22.3909C20.3024 11.7165 19.6062 12.9928 19.6062 14.3851V17.5179H24.3633L23.6672 22.3911H19.6062V33.7641H24.946C29.8192 33.7641 33.7641 29.8192 33.7641 24.946V8.81812C33.7641 3.94495 29.8192 0 24.946 0H8.81812C3.94495 0 0 3.94495 0 8.81812Z" fill="#FFC600"/>
</svg>
