<svg width="34" height="34" viewBox="0 0 34 34" fill="none" xmlns="http://www.w3.org/2000/svg">
<path fill-rule="evenodd" clip-rule="evenodd" d="M0.119873 8.81812V25.062C0.119873 29.9352 4.06484 33.8801 9.05404 33.7641H25.1819C30.0551 33.7641 34 29.8192 34 24.946V8.81812C34 3.94495 30.0551 0 25.1819 0H8.938C4.06483 0 0.119873 3.94495 0.119873 8.81812ZM25.4151 14.9685H25.8792V11.2556C23.0946 11.0236 20.89 8.93506 20.658 6.15039H17.6412V21.002C17.6412 22.8584 16.0169 24.2507 14.1604 24.2507C12.42 24.2507 10.9116 22.8584 10.9116 21.002C10.9116 19.2615 12.304 17.7532 14.1604 17.7532H14.5085V14.6204H14.1604C10.5635 14.6204 7.66284 17.5211 7.66284 21.118C7.66284 24.7149 10.5635 27.6156 14.1604 27.6156C17.7573 27.6156 20.658 24.7149 20.658 21.118V12.4159C21.7022 14.0403 23.5587 14.9685 25.4151 14.9685Z" fill="#FFC600"/>
</svg>
